#define cpu_dark_20_smaller_width 20
#define cpu_dark_20_smaller_height 20
static unsigned char cpu_dark_20_smaller_bits[] = {
   0x00, 0x00, 0x00, 0x00, 0x00, 0x00, 0xa0, 0x56, 0x00, 0xa0, 0x56, 0x00,
   0xf0, 0xff, 0x00, 0x1c, 0x80, 0x03, 0xd0, 0xbf, 0x00, 0xdc, 0xbf, 0x03,
   0xd0, 0xbf, 0x00, 0xdc, 0xbf, 0x03, 0xdc, 0xbf, 0x03, 0xd0, 0xbf, 0x00,
   0xdc, 0xbf, 0x03, 0xd0, 0xbf, 0x00, 0x1c, 0x80, 0x03, 0xf0, 0xff, 0x00,
   0xa0, 0x56, 0x00, 0xa0, 0x56, 0x00, 0x00, 0x00, 0x00, 0x00, 0x00, 0x00 };
