#define cpu_dark_20_width 20
#define cpu_dark_20_height 20
static unsigned char cpu_dark_20_bits[] = {
   0xa8, 0x56, 0x01, 0xa8, 0x56, 0x01, 0xfc, 0xff, 0x03, 0x07, 0x00, 0x0e,
   0xf4, 0xff, 0x02, 0xf7, 0xff, 0x0e, 0xf4, 0xff, 0x02, 0xf7, 0xff, 0x0e,
   0xf4, 0xff, 0x02, 0xf7, 0xff, 0x0e, 0xf7, 0xff, 0x0e, 0xf4, 0xff, 0x02,
   0xf7, 0xff, 0x0e, 0xf4, 0xff, 0x02, 0xf7, 0xff, 0x0e, 0xf4, 0xff, 0x02,
   0x07, 0x00, 0x0e, 0xfc, 0xff, 0x03, 0xa8, 0x56, 0x01, 0xa8, 0x56, 0x01 };
