/* XPM */
static char * processor_dark_24_xpm[] = {
"24 24 2 1",
" 	c None",
".	c #FFFFFF",
"     .  .  ..  .  .     ",
"     .  .  ..  .  .     ",
"    ................    ",
"   ..................   ",
"  ...              ...  ",
"....                ....",
"  ..  ............  ..  ",
"  ..  ............  ..  ",
"....  ............  ....",
"  ..  ............  ..  ",
"  ..  ............  ..  ",
"....  ............  ....",
"....  ............  ....",
"  ..  ............  ..  ",
"  ..  ............  ..  ",
"....  ............  ....",
"  ..  ............  ..  ",
"  ..  ............  ..  ",
"....                ....",
"  ...              ...  ",
"   ..................   ",
"    ................    ",
"     .  .  ..  .  .     ",
"     .  .  ..  .  .     "};
