#define processor_dark_24_width 24
#define processor_dark_24_height 24
static unsigned char processor_dark_24_bits[] = {
   0x20, 0x81, 0x04, 0x20, 0x99, 0x04, 0xf0, 0xff, 0x0f, 0xf8, 0xff, 0x1f,
   0x1c, 0x00, 0x38, 0xcf, 0xff, 0xf3, 0xec, 0xff, 0x37, 0xec, 0xff, 0x37,
   0xef, 0xff, 0xf7, 0xec, 0xff, 0x37, 0xec, 0xff, 0x37, 0xee, 0xff, 0x77,
   0xee, 0xff, 0x77, 0xec, 0xff, 0x37, 0xec, 0xff, 0x37, 0xef, 0xff, 0xf7,
   0xec, 0xff, 0x37, 0xec, 0xff, 0x37, 0xcf, 0xff, 0xf3, 0x1c, 0x00, 0x38,
   0xf8, 0xff, 0x1f, 0xf0, 0xff, 0x0f, 0x20, 0x99, 0x04, 0x20, 0x81, 0x04 };
