#define ram_dark_20_width 20
#define ram_dark_20_height 20
static unsigned char ram_dark_20_bits[] = {
   0x00, 0x00, 0x00, 0x00, 0x00, 0x00, 0x00, 0x00, 0x00, 0x00, 0x00, 0x00,
   0x00, 0x00, 0x00, 0x00, 0x00, 0x00, 0xfc, 0xff, 0x03, 0x04, 0x00, 0x02,
   0xa8, 0x56, 0x01, 0xa4, 0x56, 0x02, 0x04, 0x00, 0x02, 0xfc, 0xff, 0x03,
   0x54, 0xa5, 0x02, 0xfc, 0xe7, 0x03, 0x00, 0x00, 0x00, 0x00, 0x00, 0x00,
   0x00, 0x00, 0x00, 0x00, 0x00, 0x00, 0x00, 0x00, 0x00, 0x00, 0x00, 0x00 };
